<?xml version="1.0" encoding="UTF-8"?>
<svg version="1.1" xmlns="http://www.w3.org/2000/svg" width="1172" height="1172">
<path d="M0 0 C19.62634802 16.67926061 29.72816217 40.82783331 31.8125 66.25 C33.73979908 100.37351845 26.55884176 134.47994567 5.8125 162.25 C5.18472656 163.11109375 4.55695312 163.9721875 3.91015625 164.859375 C-4.71824761 176.05477041 -15.67882928 185.35237891 -26.30541992 194.59765625 C-29.10547683 197.05592388 -31.8356646 199.58613382 -34.5625 202.125 C-39.22583223 206.4486416 -43.92446176 210.72818453 -48.66015625 214.97265625 C-51.51832203 217.54809775 -54.35460261 220.14685764 -57.1875 222.75 C-61.64082617 226.84169207 -66.12409888 230.89822977 -70.625 234.9375 C-73.49350409 237.52615003 -76.3422665 240.13585146 -79.1875 242.75 C-83.64085487 246.84166107 -88.12409854 250.89822946 -92.625 254.9375 C-95.49350409 257.52615003 -98.3422665 260.13585146 -101.1875 262.75 C-105.64085487 266.84166107 -110.12409854 270.89822946 -114.625 274.9375 C-117.49350409 277.52615003 -120.3422665 280.13585146 -123.1875 282.75 C-127.64085487 286.84166107 -132.12409854 290.89822946 -136.625 294.9375 C-139.49350409 297.52615003 -142.3422665 300.13585146 -145.1875 302.75 C-149.63814847 306.83917448 -154.11828083 310.89369084 -158.6171875 314.9296875 C-161.53178447 317.56079783 -164.42289224 320.21652475 -167.3125 322.875 C-170.54963091 325.8522264 -173.79887856 328.80952966 -177.125 331.6875 C-181.256609 335.26937309 -185.25679927 338.98837958 -189.26708984 342.70458984 C-193.36443929 346.49887039 -197.50160773 350.24546447 -201.66015625 353.97265625 C-204.51832203 356.54809775 -207.35460261 359.14685764 -210.1875 361.75 C-214.62792432 365.82983792 -219.09798218 369.87487896 -223.5859375 373.90234375 C-228.48167333 378.32026753 -233.33267002 382.78722673 -238.1875 387.25 C-233.9582585 392.29683531 -229.54480185 397.04016664 -224.8828125 401.6875 C-224.20000214 402.37126709 -223.51719177 403.05503418 -222.81369019 403.75952148 C-221.3778353 405.19605274 -219.94073338 406.63133852 -218.50244141 408.06542969 C-216.32209685 410.24042669 -214.14713129 412.42069918 -211.97265625 414.6015625 C-210.56802874 416.00552897 -209.16309094 417.40918508 -207.7578125 418.8125 C-207.11796417 419.45437256 -206.47811584 420.09624512 -205.81887817 420.75756836 C-202.71134009 423.84932497 -199.55850466 426.8328088 -196.23779297 429.6953125 C-191.89039988 433.453698 -187.85118281 437.47733849 -183.8125 441.5625 C-183.04373535 442.33505127 -182.2749707 443.10760254 -181.48291016 443.90356445 C-178.2289017 447.17376036 -174.98093734 450.4499349 -171.73242188 453.72558594 C-169.34454648 456.13165285 -166.95359207 458.53463038 -164.5625 460.9375 C-163.84143066 461.66686768 -163.12036133 462.39623535 -162.37744141 463.14770508 C-158.44248813 467.10137883 -154.40352914 470.84158171 -150.17944336 474.48291016 C-146.64614965 477.61736044 -143.35012784 480.98548236 -140.03125 484.34375 C-139.2846814 485.09410522 -138.53811279 485.84446045 -137.7689209 486.61755371 C-134.61048888 489.79216504 -131.45810721 492.97275916 -128.30517578 496.15283203 C-125.98680255 498.48940361 -123.6653448 500.82287999 -121.34375 503.15625 C-120.64455444 503.8637439 -119.94535889 504.57123779 -119.22497559 505.3001709 C-115.26640059 509.27813792 -111.19788859 513.05037138 -106.94766235 516.71469116 C-104.85360814 518.54123854 -102.88005313 520.45885956 -100.93359375 522.44140625 C-100.22396484 523.15876953 -99.51433594 523.87613281 -98.78320312 524.61523438 C-98.07099609 525.34033203 -97.35878906 526.06542969 -96.625 526.8125 C-90.75024882 532.80831755 -90.75024882 532.80831755 -84.47265625 538.37109375 C-81.15431371 541.15903189 -78.65137893 544.19817453 -76.1875 547.75 C-75.76380127 548.35529541 -75.34010254 548.96059082 -74.90356445 549.58422852 C-58.80856571 573.14048496 -52.27586693 602.93979357 -57.56152344 631.05175781 C-59.14157573 638.6131897 -61.11181316 646.08977581 -63.0625 653.5625 C-63.38992188 654.82618408 -63.71734375 656.08986816 -64.0546875 657.3918457 C-68.24815421 672.99756179 -74.12079794 688.90464777 -88.1875 698.25 C-98.99905384 704.0001893 -109.36833916 705.83297395 -121.1875 702.25 C-131.23225729 698.32809593 -138.77135866 692.71140718 -146.70410156 685.55517578 C-148.80716713 683.70478267 -151.03212083 682.02254702 -153.25 680.3125 C-159.95171512 674.88588997 -165.89809621 668.66763729 -171.93188477 662.51977539 C-176.24565279 658.13399121 -180.61173486 653.9326614 -185.2824707 649.93017578 C-188.57373717 647.02738252 -191.61640571 643.88200326 -194.6875 640.75 C-200.27201207 635.07399606 -200.27201207 635.07399606 -206.1875 629.75 C-210.98264352 625.7119844 -215.2920078 621.16874941 -219.69921875 616.71875 C-222.77957796 613.61994552 -225.84266604 610.56670228 -229.1875 607.75 C-233.93410873 603.75285581 -238.21771627 599.26876691 -242.55859375 594.84179688 C-245.66275776 591.69497522 -248.80631865 588.66664009 -252.15625 585.78125 C-257.09977222 581.51860087 -261.6196549 576.86799832 -266.1875 572.2109375 C-270.06289047 568.29013229 -274.04246085 564.59324905 -278.21875 560.99609375 C-281.52505551 558.06371565 -284.59468115 554.90415868 -287.6875 551.75 C-293.27201207 546.07399606 -293.27201207 546.07399606 -299.1875 540.75 C-303.98264352 536.7119844 -308.2920078 532.16874941 -312.69921875 527.71875 C-315.77957796 524.61994552 -318.84266604 521.56670228 -322.1875 518.75 C-326.25847565 515.32180998 -329.94521925 511.5277526 -333.6875 507.75 C-342.56446106 498.35802819 -342.56446106 498.35802819 -353.1875 491.25 C-353.66058594 491.69802979 -354.13367188 492.14605957 -354.62109375 492.60766602 C-356.80843913 494.67748955 -358.99795618 496.7450023 -361.1875 498.8125 C-362.30318359 499.86920898 -362.30318359 499.86920898 -363.44140625 500.94726562 C-367.66232888 504.92961437 -371.94132051 508.81982886 -376.32519531 512.62182617 C-379.1226958 515.06762202 -381.84311911 517.59307447 -384.5625 520.125 C-389.22583223 524.4486416 -393.92446176 528.72818453 -398.66015625 532.97265625 C-401.51832203 535.54809775 -404.35460261 538.14685764 -407.1875 540.75 C-411.64082617 544.84169207 -416.12409888 548.89822977 -420.625 552.9375 C-423.49350409 555.52615003 -426.3422665 558.13585146 -429.1875 560.75 C-433.64085487 564.84166107 -438.12409854 568.89822946 -442.625 572.9375 C-445.49350409 575.52615003 -448.3422665 578.13585146 -451.1875 580.75 C-455.64085487 584.84166107 -460.12409854 588.89822946 -464.625 592.9375 C-467.49350409 595.52615003 -470.3422665 598.13585146 -473.1875 600.75 C-477.64085487 604.84166107 -482.12409854 608.89822946 -486.625 612.9375 C-489.49350409 615.52615003 -492.3422665 618.13585146 -495.1875 620.75 C-499.64085487 624.84166107 -504.12409854 628.89822946 -508.625 632.9375 C-511.49350445 635.52615036 -514.34222981 638.13589108 -517.1875 640.75 C-523.28737144 646.35303176 -529.44311163 651.89212914 -535.609375 657.421875 C-540.67622009 661.97235371 -545.71112488 666.55605967 -550.72607422 671.16357422 C-554.66813202 674.78228476 -558.64249497 678.36345702 -562.625 681.9375 C-565.49350409 684.52615003 -568.3422665 687.13585146 -571.1875 689.75 C-575.64085487 693.84166107 -580.12409854 697.89822946 -584.625 701.9375 C-587.49350409 704.52615003 -590.3422665 707.13585146 -593.1875 709.75 C-597.64085487 713.84166107 -602.12409854 717.89822946 -606.625 721.9375 C-609.4935085 724.52615401 -612.34181496 727.1363394 -615.1875 729.75 C-616.20827737 730.68495694 -617.22911013 731.61985341 -618.25 732.5546875 C-620.08858653 734.24168844 -621.92267334 735.93362155 -623.75 737.6328125 C-642.17062134 754.57742251 -660.60839852 765.2818949 -686.07421875 764.6015625 C-692.54830932 764.27089978 -698.23389475 762.80035056 -704.1875 760.25 C-705.0640625 759.88777344 -705.940625 759.52554688 -706.84375 759.15234375 C-725.42326207 750.69407823 -738.27392452 733.20456026 -745.5 714.5625 C-757.90375469 680.32813704 -755.14858787 640.25741563 -740.1875 607.25 C-731.65644304 589.10349395 -720.71535218 573.02548833 -705.25 559.9921875 C-702.84735085 557.96267705 -700.51882714 555.86098829 -698.1875 553.75 C-695.22880249 551.07951656 -692.25823528 548.42701942 -689.25 545.8125 C-686.02190488 543.00177475 -682.85011557 540.134201 -679.6875 537.25 C-675.90087002 533.79671847 -672.0827368 530.38900949 -668.21484375 527.02734375 C-665.85260827 524.95640513 -663.51954147 522.85487152 -661.1875 520.75 C-657.57073655 517.48609152 -653.92360392 514.26209051 -650.25 511.0625 C-647.0123667 508.2173071 -643.8206371 505.32146164 -640.62109375 502.43359375 C-638.51238854 500.54151315 -636.38830199 498.67094242 -634.25 496.8125 C-631.02190488 494.00177475 -627.85011557 491.134201 -624.6875 488.25 C-620.90087002 484.79671847 -617.0827368 481.38900949 -613.21484375 478.02734375 C-610.85260827 475.95640513 -608.51954147 473.85487152 -606.1875 471.75 C-602.57073655 468.48609152 -598.92360392 465.26209051 -595.25 462.0625 C-592.0123667 459.2173071 -588.8206371 456.32146164 -585.62109375 453.43359375 C-583.51238854 451.54151315 -581.38830199 449.67094242 -579.25 447.8125 C-576.02190488 445.00177475 -572.85011557 442.134201 -569.6875 439.25 C-565.90087002 435.79671847 -562.0827368 432.38900949 -558.21484375 429.02734375 C-555.85260827 426.95640513 -553.51954147 424.85487152 -551.1875 422.75 C-547.57073655 419.48609152 -543.92360392 416.26209051 -540.25 413.0625 C-537.0123667 410.2173071 -533.8206371 407.32146164 -530.62109375 404.43359375 C-528.51238854 402.54151315 -526.38830199 400.67094242 -524.25 398.8125 C-521.02190488 396.00177475 -517.85011557 393.134201 -514.6875 390.25 C-510.90358177 386.79919149 -507.08881741 383.39323874 -503.22265625 380.03515625 C-500.81394157 377.92232975 -498.43857739 375.77444706 -496.0625 373.625 C-492.5029386 370.41150707 -488.90310689 367.28115299 -485.1875 364.25 C-491.74960123 356.22965405 -499.08619913 348.6391213 -507 341.9375 C-511.12454028 338.43553184 -514.88320826 334.59134803 -518.6875 330.75 C-524.27294409 325.0749973 -524.27294409 325.0749973 -530.1875 319.75 C-534.98264352 315.7119844 -539.2920078 311.16874941 -543.69921875 306.71875 C-546.77957796 303.61994552 -549.84266604 300.56670228 -553.1875 297.75 C-557.93410873 293.75285581 -562.21771627 289.26876691 -566.55859375 284.84179688 C-569.66275776 281.69497522 -572.80631865 278.66664009 -576.15625 275.78125 C-581.09977222 271.51860087 -585.6196549 266.86799832 -590.1875 262.2109375 C-594.06289047 258.29013229 -598.04246085 254.59324905 -602.21875 250.99609375 C-605.52503551 248.06373338 -608.59491181 244.90435921 -611.6875 241.75 C-617.38691554 235.96916939 -617.38691554 235.96916939 -623.4375 230.5625 C-649.17969874 208.43421685 -661.22376566 175.47393319 -663.91015625 142.3359375 C-664.0062816 140.97421294 -664.09919933 139.61225433 -664.1875 138.25 C-664.24808594 137.33476562 -664.30867188 136.41953125 -664.37109375 135.4765625 C-665.09923004 110.37727639 -657.66582892 83.93365997 -640.4140625 65.31640625 C-630.4888794 56.10513983 -617.88265012 50.8416238 -604.33984375 51.1015625 C-584.07291846 52.49928149 -568.84883128 64.84782395 -555.375 78.875 C-553.90706652 80.38604353 -552.43603954 81.89394453 -550.9622345 83.39926147 C-549.63608323 84.75628065 -548.31808963 86.12125857 -547.00073242 87.48681641 C-544.83532115 89.61370392 -542.65741284 91.60287705 -540.36254883 93.58154297 C-536.05324844 97.31397995 -532.03708835 101.29036872 -528.03125 105.34375 C-527.2846814 106.09410522 -526.53811279 106.84446045 -525.7689209 107.61755371 C-522.61048888 110.79216504 -519.45810721 113.97275916 -516.30517578 117.15283203 C-513.98680255 119.48940361 -511.6653448 121.82287999 -509.34375 124.15625 C-508.64455444 124.8637439 -507.94535889 125.57123779 -507.22497559 126.3001709 C-503.97079853 129.57028932 -500.68170302 132.73641782 -497.1875 135.75 C-492.93180995 139.42032816 -488.97999957 143.34813505 -485.03125 147.34375 C-484.2846814 148.09410522 -483.53811279 148.84446045 -482.7689209 149.61755371 C-479.61048888 152.79216504 -476.45810721 155.97275916 -473.30517578 159.15283203 C-470.98680255 161.48940361 -468.6653448 163.82287999 -466.34375 166.15625 C-465.64455444 166.8637439 -464.94535889 167.57123779 -464.22497559 168.3001709 C-460.97079853 171.57028932 -457.68170302 174.73641782 -454.1875 177.75 C-449.93180995 181.42032816 -445.97999957 185.34813505 -442.03125 189.34375 C-441.2846814 190.09410522 -440.53811279 190.84446045 -439.7689209 191.61755371 C-436.61048888 194.79216504 -433.45810721 197.97275916 -430.30517578 201.15283203 C-427.98680255 203.48940361 -425.6653448 205.82287999 -423.34375 208.15625 C-422.64455444 208.8637439 -421.94535889 209.57123779 -421.22497559 210.3001709 C-417.97389843 213.56717424 -414.688452 216.72979751 -411.19628906 219.73901367 C-406.88007354 223.46144006 -402.88693578 227.45901283 -398.890625 231.51953125 C-397.33997463 233.08281213 -395.7891895 234.64595934 -394.23828125 236.20898438 C-391.82473867 238.64744699 -389.41284199 241.08749684 -387.00341797 243.5300293 C-384.65768406 245.90589756 -382.30582437 248.27556325 -379.953125 250.64453125 C-379.2332843 251.37783157 -378.5134436 252.1111319 -377.77178955 252.86665344 C-377.09718689 253.54463486 -376.42258423 254.22261627 -375.72753906 254.92114258 C-375.13877991 255.51735916 -374.55002075 256.11357574 -373.94342041 256.7278595 C-372.12425065 258.30482845 -370.37934665 259.27413073 -368.1875 260.25 C-367.775 259.86255615 -367.3625 259.4751123 -366.9375 259.07592773 C-352.92136677 245.9221152 -352.92136677 245.9221152 -347.07421875 240.88671875 C-344.75091213 238.87126228 -342.47001535 236.81151538 -340.1875 234.75 C-336.57073655 231.48609152 -332.92360392 228.26209051 -329.25 225.0625 C-326.87785571 222.97788836 -324.53193935 220.86571356 -322.1875 218.75 C-319.20687279 216.06016569 -316.21504767 213.38689636 -313.1875 210.75 C-308.47048716 206.63918961 -303.83111111 202.44332155 -299.1875 198.25 C-293.90764424 193.48213025 -288.61458194 188.73487782 -283.25 184.0625 C-280.87785571 181.97788836 -278.53193935 179.86571356 -276.1875 177.75 C-272.57073655 174.48609152 -268.92360392 171.26209051 -265.25 168.0625 C-262.0123667 165.2173071 -258.8206371 162.32146164 -255.62109375 159.43359375 C-253.51238854 157.54151315 -251.38830199 155.67094242 -249.25 153.8125 C-246.02190488 151.00177475 -242.85011557 148.134201 -239.6875 145.25 C-235.90087002 141.79671847 -232.0827368 138.38900949 -228.21484375 135.02734375 C-225.85260827 132.95640513 -223.51954147 130.85487152 -221.1875 128.75 C-217.57073655 125.48609152 -213.92360392 122.26209051 -210.25 119.0625 C-207.0123667 116.2173071 -203.8206371 113.32146164 -200.62109375 110.43359375 C-198.51238854 108.54151315 -196.38830199 106.67094242 -194.25 104.8125 C-191.02190488 102.00177475 -187.85011557 99.134201 -184.6875 96.25 C-180.90087002 92.79671847 -177.0827368 89.38900949 -173.21484375 86.02734375 C-170.85260827 83.95640513 -168.51954147 81.85487152 -166.1875 79.75 C-162.57073655 76.48609152 -158.92360392 73.26209051 -155.25 70.0625 C-152.0123667 67.2173071 -148.8206371 64.32146164 -145.62109375 61.43359375 C-143.51238854 59.54151315 -141.38830199 57.67094242 -139.25 55.8125 C-136.02190488 53.00177475 -132.85011557 50.134201 -129.6875 47.25 C-125.90087002 43.79671847 -122.0827368 40.38900949 -118.21484375 37.02734375 C-115.85260827 34.95640513 -113.51954147 32.85487152 -111.1875 30.75 C-107.56726277 27.48295665 -103.91766435 24.25479224 -100.23828125 21.0546875 C-97.92661203 19.02041859 -95.6521857 16.9477769 -93.375 14.875 C-66.43567184 -9.31290287 -32.57487043 -24.88358158 0 0 Z " fill="#7F11D0" transform="translate(947.1875,207.75)"/>
<path d="M0 0 C10.37271879 6.6893957 18.82947235 15.62261951 27.38476562 24.40869141 C32.36971981 29.51546441 37.28079926 34.50097347 42.91503906 38.90185547 C51.99742141 46.13451523 59.90832001 54.72240681 68.05175781 62.97216797 C70.60402725 65.55223464 73.15783016 68.13073644 75.7146759 70.70626831 C77.29475861 72.29842311 78.87216432 73.89324101 80.44633484 75.49124146 C84.45391913 79.53494265 88.557031 83.36586388 92.87055969 87.07955933 C96.48203704 90.2814877 99.8472325 93.72860594 103.23925781 97.15966797 C104.39240479 98.31849487 104.39240479 98.31849487 105.56884766 99.50073242 C108.82285611 102.77092833 112.07082047 106.04710287 115.31933594 109.32275391 C117.70721133 111.72882082 120.09816574 114.13179835 122.48925781 116.53466797 C123.21032715 117.26403564 123.93139648 117.99340332 124.67431641 118.74487305 C128.60926968 122.6985468 132.64822867 126.43874968 136.87231445 130.08007812 C140.40560817 133.21452841 143.70162997 136.58265032 147.02050781 139.94091797 C148.14036072 141.06645081 148.14036072 141.06645081 149.28283691 142.21472168 C152.44126894 145.38933301 155.5936506 148.56992713 158.74658203 151.75 C161.06495527 154.08657158 163.38641301 156.42004796 165.70800781 158.75341797 C166.40720337 159.46091187 167.10639893 160.16840576 167.82678223 160.89733887 C171.78535722 164.87530589 175.85386922 168.64753934 180.10409546 172.31185913 C182.19814967 174.13840651 184.17170468 176.05602753 186.11816406 178.03857422 C186.82779297 178.7559375 187.53742188 179.47330078 188.26855469 180.21240234 C189.33686523 181.30004883 189.33686523 181.30004883 190.42675781 182.40966797 C196.30150899 188.40548552 196.30150899 188.40548552 202.57910156 193.96826172 C205.8974441 196.75619986 208.40037888 199.7953425 210.86425781 203.34716797 C211.28795654 203.95246338 211.71165527 204.55775879 212.14819336 205.18139648 C228.2431921 228.73765292 234.77589088 258.53696154 229.49023438 286.64892578 C227.91018208 294.21035767 225.93994465 301.68694378 223.98925781 309.15966797 C223.66183594 310.42335205 223.33441406 311.68703613 222.99707031 312.98901367 C218.8036036 328.59472976 212.93095987 344.50181574 198.86425781 353.84716797 C188.05270397 359.59735727 177.68341865 361.43014192 165.86425781 357.84716797 C155.81950053 353.9252639 148.28039916 348.30857515 140.34765625 341.15234375 C138.24459068 339.30195064 136.01963698 337.61971499 133.80175781 335.90966797 C127.1000427 330.48305794 121.1536616 324.26480526 115.11987305 318.11694336 C110.80610502 313.73115917 106.44002295 309.52982936 101.76928711 305.52734375 C98.47802064 302.62455049 95.4353521 299.47917123 92.36425781 296.34716797 C86.77974574 290.67116403 86.77974574 290.67116403 80.86425781 285.34716797 C76.06911429 281.30915237 71.75975002 276.76591738 67.35253906 272.31591797 C64.27217985 269.21711349 61.20909177 266.16387025 57.86425781 263.34716797 C53.11764908 259.35002377 48.83404154 254.86593488 44.49316406 250.43896484 C41.38900005 247.29214319 38.24543916 244.26380806 34.89550781 241.37841797 C29.95198559 237.11576884 25.43210291 232.46516629 20.86425781 227.80810547 C16.98886734 223.88730026 13.00929696 220.19041702 8.83300781 216.59326172 C5.5267023 213.66088362 2.45707666 210.50132665 -0.63574219 207.34716797 C-6.22025426 201.67116403 -6.22025426 201.67116403 -12.13574219 196.34716797 C-16.93088571 192.30915237 -21.24024998 187.76591738 -25.64746094 183.31591797 C-28.72782015 180.21711349 -31.79090823 177.16387025 -35.13574219 174.34716797 C-39.24410402 170.80497991 -43.09565792 167.03830394 -46.94824219 163.22216797 C-47.60759766 162.57570313 -48.26695312 161.92923828 -48.94628906 161.26318359 C-52.23612625 157.98012259 -54.91441847 154.96683361 -57.13574219 150.84716797 C-58.16982943 149.2780007 -59.20420595 147.70901498 -60.24389648 146.14355469 C-79.84884532 116.37354257 -86.80003518 81.08505736 -80.03808594 45.97216797 C-76.19599971 27.80807462 -67.41639664 10.50039027 -51.69824219 -0.09033203 C-35.07337742 -9.76298062 -16.71865266 -9.92650174 0 0 Z " fill="#FCC14F" transform="translate(660.1357421875,552.15283203125)"/>
<path d="M0 0 C0.9590625 0.43892578 0.9590625 0.43892578 1.9375 0.88671875 C18.9993544 10.09624243 29.45939359 32.54271616 34.93359375 50.03125 C41.98911373 75.25205423 38.62858938 98.39843957 32.125 123.3125 C31.79757812 124.57618408 31.47015625 125.83986816 31.1328125 127.1418457 C26.93934579 142.74756179 21.06670206 158.65464777 7 168 C-3.81155384 173.7501893 -14.18083916 175.58297395 -26 172 C-36.68419064 167.82843373 -44.5927793 161.63375639 -53 154 C-54.58135152 152.64351957 -56.16435845 151.28896317 -57.75 149.9375 C-60.87292818 147.25414365 -60.87292818 147.25414365 -62 145 C-60.35 145.66 -58.7 146.32 -57 147 C-57.50789062 146.16339844 -58.01578125 145.32679688 -58.5390625 144.46484375 C-63.62441286 135.9284985 -67.63204997 127.34368582 -71 118 C-71.31839844 117.11699219 -71.63679687 116.23398437 -71.96484375 115.32421875 C-75.38013087 104.94242557 -76.18506489 94.29088556 -76.3125 83.4375 C-76.33014404 82.59985107 -76.34778809 81.76220215 -76.3659668 80.89916992 C-76.35824521 73.63034447 -74.76786609 67.02025722 -73 60 C-72.56140325 58.09167825 -72.12292941 56.18332266 -71.68991089 54.27372742 C-62.00280358 11.78798221 -62.00280358 11.78798221 -43.5 -1.4375 C-28.93020481 -10.32029396 -14.423931 -7.77884489 0 0 Z " fill="#7E10CE" transform="translate(852,738)"/>
<path d="M0 0 C11.79030243 7.96826517 21.81914839 18.31415508 29.6875 30.125 C30.22503906 30.89585937 30.76257813 31.66671875 31.31640625 32.4609375 C46.68605198 55.97689676 50.24395512 87.44820056 45.1875 114.625 C42.01067069 129.44043008 34.80579419 144.46757874 21.99023438 153.29394531 C11.19051191 159.9912148 0.95673167 161.86575284 -11.578125 159.51171875 C-23.51806952 155.96411743 -32.42897535 147.50568364 -41.3125 139.125 C-41.95058594 138.53976562 -42.58867187 137.95453125 -43.24609375 137.3515625 C-57.89791315 123.45028173 -66.38209829 102.56769722 -70.3125 83.125 C-70.52003906 82.19171875 -70.72757812 81.2584375 -70.94140625 80.296875 C-75.34862891 58.22994197 -72.20096067 33.13580839 -60.3125 13.88671875 C-45.56262627 -7.26354661 -22.52114292 -13.10140126 0 0 Z " fill="#EEB445" transform="translate(364.3125,280.875)"/>
<path d="M0 0 C0 0.33 0 0.66 0 1 C-1.10408203 1.19916016 -1.10408203 1.19916016 -2.23046875 1.40234375 C-3.20628906 1.57894531 -4.18210937 1.75554687 -5.1875 1.9375 C-6.63189453 2.19853516 -6.63189453 2.19853516 -8.10546875 2.46484375 C-14.2844981 3.55062502 -14.2844981 3.55062502 -20 6 C-21.17030762 6.65754272 -21.17030762 6.65754272 -22.36425781 7.32836914 C-26.72297475 10.0927388 -30.12229311 13.79449924 -33.75 17.4375 C-34.52988281 18.20126953 -35.30976563 18.96503906 -36.11328125 19.75195312 C-36.85449219 20.49251953 -37.59570312 21.23308594 -38.359375 21.99609375 C-39.03452148 22.66825928 -39.70966797 23.3404248 -40.40527344 24.03295898 C-42.07962567 26.09821556 -42.49797615 27.43481789 -43 30 C-44.83608161 31.93271748 -46.87262247 33.37051934 -49 35 C-45.82553358 22.51376543 -37.9292301 11.83479876 -27 5 C-17.94770684 -0.20188114 -10.17313572 -0.62539769 0 0 Z " fill="#EFC269" transform="translate(347,274)"/>
<path d="M0 0 C0 0.33 0 0.66 0 1 C-1.10408203 1.19916016 -1.10408203 1.19916016 -2.23046875 1.40234375 C-3.20628906 1.57894531 -4.18210937 1.75554687 -5.1875 1.9375 C-6.63189453 2.19853516 -6.63189453 2.19853516 -8.10546875 2.46484375 C-9.53826172 2.72974609 -9.53826172 2.72974609 -11 3 C-12.29357422 3.21849609 -12.29357422 3.21849609 -13.61328125 3.44140625 C-16.01969246 4.00460887 -17.82852565 4.8404327 -20 6 C-21.02867187 6.40798828 -21.02867187 6.40798828 -22.078125 6.82421875 C-27.29665619 8.89849104 -31.09000397 11.47046495 -35.17578125 15.31640625 C-37.0281284 17.02596004 -38.96177188 18.51969746 -41 20 C-37.41679936 11.53061666 -30.7449248 7.36271724 -23 3 C-22.35160156 2.63390625 -21.70320313 2.2678125 -21.03515625 1.890625 C-14.53182959 -1.12623551 -7.00207826 -0.24616681 0 0 Z " fill="#DFAC64" transform="translate(347,274)"/>
<path d="M0 0 C0.66 0.33 1.32 0.66 2 1 C-5.26 8.26 -12.52 15.52 -20 23 C-20 18.83257256 -17.72202211 17.11751103 -15 14.25 C-14.50322754 13.71721436 -14.00645508 13.18442871 -13.49462891 12.63549805 C-9.56393488 8.47154154 -5.41485784 4.64756972 -1 1 C-0.67 0.67 -0.34 0.34 0 0 Z " fill="#9F5ECE" transform="translate(245,765)"/>
<path d="M0 0 C1.01688584 2.6439032 0.9773725 4.11816583 0.4375 6.9375 C-1.41780923 10.89011531 -3.51324774 12.42283529 -7 15 C-5.34292168 9.35086937 -3.52237988 4.73699363 0 0 Z " fill="#E1AD67" transform="translate(305,294)"/>
<path d="M0 0 C0.66 0.33 1.32 0.66 2 1 C-2.62 5.62 -7.24 10.24 -12 15 C-12 11.11566834 -10.82920314 10.32394504 -8.25 7.5 C-7.55390625 6.7265625 -6.8578125 5.953125 -6.140625 5.15625 C-4.19891408 3.20036601 -2.25069252 1.58156772 0 0 Z " fill="#B669EF" transform="translate(313,268)"/>
<path d="M0 0 C0.66 0.33 1.32 0.66 2 1 C-2 5 -6 9 -10 13 C-9.48223379 8.89552608 -7.35372556 7.04300477 -4.4375 4.25 C-3.61121094 3.45078125 -2.78492188 2.6515625 -1.93359375 1.828125 C-1.29550781 1.22484375 -0.65742188 0.6215625 0 0 Z " fill="#EABC63" transform="translate(316,284)"/>
<path d="M0 0 C0 3 0 3 -1.75 5.04296875 C-2.4925 5.75066406 -3.235 6.45835937 -4 7.1875 C-4.7425 7.90292969 -5.485 8.61835938 -6.25 9.35546875 C-6.8275 9.89816406 -7.405 10.44085938 -8 11 C-8 7.45459812 -7.40614728 6.93992636 -5.125 4.375 C-4.59132813 3.76398438 -4.05765625 3.15296875 -3.5078125 2.5234375 C-2 1 -2 1 0 0 Z " fill="#D9A26A" transform="translate(315,283)"/>
<path d="M0 0 C1.32 1.65 2.64 3.3 4 5 C0.79604584 5 -1.09399739 4.25664978 -4 3 C-4 2.34 -4 1.68 -4 1 C-2.68 0.67 -1.36 0.34 0 0 Z " fill="#D6A37A" transform="translate(792,880)"/>
</svg>
