<?xml version="1.0" encoding="UTF-8"?>
<svg version="1.1" xmlns="http://www.w3.org/2000/svg" width="2955" height="1172">
<path d="M0 0 C19.62634802 16.67926061 29.72816217 40.82783331 31.8125 66.25 C33.73979908 100.37351845 26.55884176 134.47994567 5.8125 162.25 C5.18472656 163.11109375 4.55695312 163.9721875 3.91015625 164.859375 C-4.71824761 176.05477041 -15.67882928 185.35237891 -26.30541992 194.59765625 C-29.10547683 197.05592388 -31.8356646 199.58613382 -34.5625 202.125 C-39.22583223 206.4486416 -43.92446176 210.72818453 -48.66015625 214.97265625 C-51.51832203 217.54809775 -54.35460261 220.14685764 -57.1875 222.75 C-61.64082617 226.84169207 -66.12409888 230.89822977 -70.625 234.9375 C-73.49350409 237.52615003 -76.3422665 240.13585146 -79.1875 242.75 C-83.64085487 246.84166107 -88.12409854 250.89822946 -92.625 254.9375 C-95.49350409 257.52615003 -98.3422665 260.13585146 -101.1875 262.75 C-105.64085487 266.84166107 -110.12409854 270.89822946 -114.625 274.9375 C-117.49350409 277.52615003 -120.3422665 280.13585146 -123.1875 282.75 C-127.64085487 286.84166107 -132.12409854 290.89822946 -136.625 294.9375 C-139.49350409 297.52615003 -142.3422665 300.13585146 -145.1875 302.75 C-149.63814847 306.83917448 -154.11828083 310.89369084 -158.6171875 314.9296875 C-161.53178447 317.56079783 -164.42289224 320.21652475 -167.3125 322.875 C-170.54963091 325.8522264 -173.79887856 328.80952966 -177.125 331.6875 C-181.256609 335.26937309 -185.25679927 338.98837958 -189.26708984 342.70458984 C-193.36443929 346.49887039 -197.50160773 350.24546447 -201.66015625 353.97265625 C-204.51832203 356.54809775 -207.35460261 359.14685764 -210.1875 361.75 C-214.62792432 365.82983792 -219.09798218 369.87487896 -223.5859375 373.90234375 C-228.48167333 378.32026753 -233.33267002 382.78722673 -238.1875 387.25 C-233.9582585 392.29683531 -229.54480185 397.04016664 -224.8828125 401.6875 C-224.20000214 402.37126709 -223.51719177 403.05503418 -222.81369019 403.75952148 C-221.3778353 405.19605274 -219.94073338 406.63133852 -218.50244141 408.06542969 C-216.32209685 410.24042669 -214.14713129 412.42069918 -211.97265625 414.6015625 C-210.56802874 416.00552897 -209.16309094 417.40918508 -207.7578125 418.8125 C-207.11796417 419.45437256 -206.47811584 420.09624512 -205.81887817 420.75756836 C-202.71134009 423.84932497 -199.55850466 426.8328088 -196.23779297 429.6953125 C-191.89039988 433.453698 -187.85118281 437.47733849 -183.8125 441.5625 C-183.04373535 442.33505127 -182.2749707 443.10760254 -181.48291016 443.90356445 C-178.2289017 447.17376036 -174.98093734 450.4499349 -171.73242188 453.72558594 C-169.34454648 456.13165285 -166.95359207 458.53463038 -164.5625 460.9375 C-163.84143066 461.66686768 -163.12036133 462.39623535 -162.37744141 463.14770508 C-158.44248813 467.10137883 -154.40352914 470.84158171 -150.17944336 474.48291016 C-146.64614965 477.61736044 -143.35012784 480.98548236 -140.03125 484.34375 C-139.2846814 485.09410522 -138.53811279 485.84446045 -137.7689209 486.61755371 C-134.61048888 489.79216504 -131.45810721 492.97275916 -128.30517578 496.15283203 C-125.98680255 498.48940361 -123.6653448 500.82287999 -121.34375 503.15625 C-120.64455444 503.8637439 -119.94535889 504.57123779 -119.22497559 505.3001709 C-115.26640059 509.27813792 -111.19788859 513.05037138 -106.94766235 516.71469116 C-104.85360814 518.54123854 -102.88005313 520.45885956 -100.93359375 522.44140625 C-100.22396484 523.15876953 -99.51433594 523.87613281 -98.78320312 524.61523438 C-98.07099609 525.34033203 -97.35878906 526.06542969 -96.625 526.8125 C-90.75024882 532.80831755 -90.75024882 532.80831755 -84.47265625 538.37109375 C-81.15431371 541.15903189 -78.65137893 544.19817453 -76.1875 547.75 C-75.76380127 548.35529541 -75.34010254 548.96059082 -74.90356445 549.58422852 C-58.80856571 573.14048496 -52.27586693 602.93979357 -57.56152344 631.05175781 C-59.14157573 638.6131897 -61.11181316 646.08977581 -63.0625 653.5625 C-63.38992188 654.82618408 -63.71734375 656.08986816 -64.0546875 657.3918457 C-68.24815421 672.99756179 -74.12079794 688.90464777 -88.1875 698.25 C-98.99905384 704.0001893 -109.36833916 705.83297395 -121.1875 702.25 C-131.23225729 698.32809593 -138.77135866 692.71140718 -146.70410156 685.55517578 C-148.80716713 683.70478267 -151.03212083 682.02254702 -153.25 680.3125 C-159.95171512 674.88588997 -165.89809621 668.66763729 -171.93188477 662.51977539 C-176.24565279 658.13399121 -180.61173486 653.9326614 -185.2824707 649.93017578 C-188.57373717 647.02738252 -191.61640571 643.88200326 -194.6875 640.75 C-200.27201207 635.07399606 -200.27201207 635.07399606 -206.1875 629.75 C-210.98264352 625.7119844 -215.2920078 621.16874941 -219.69921875 616.71875 C-222.77957796 613.61994552 -225.84266604 610.56670228 -229.1875 607.75 C-233.93410873 603.75285581 -238.21771627 599.26876691 -242.55859375 594.84179688 C-245.66275776 591.69497522 -248.80631865 588.66664009 -252.15625 585.78125 C-257.09977222 581.51860087 -261.6196549 576.86799832 -266.1875 572.2109375 C-270.06289047 568.29013229 -274.04246085 564.59324905 -278.21875 560.99609375 C-281.52505551 558.06371565 -284.59468115 554.90415868 -287.6875 551.75 C-293.27201207 546.07399606 -293.27201207 546.07399606 -299.1875 540.75 C-303.98264352 536.7119844 -308.2920078 532.16874941 -312.69921875 527.71875 C-315.77957796 524.61994552 -318.84266604 521.56670228 -322.1875 518.75 C-326.25847565 515.32180998 -329.94521925 511.5277526 -333.6875 507.75 C-342.56446106 498.35802819 -342.56446106 498.35802819 -353.1875 491.25 C-353.66058594 491.69802979 -354.13367188 492.14605957 -354.62109375 492.60766602 C-356.80843913 494.67748955 -358.99795618 496.7450023 -361.1875 498.8125 C-362.30318359 499.86920898 -362.30318359 499.86920898 -363.44140625 500.94726562 C-367.66232888 504.92961437 -371.94132051 508.81982886 -376.32519531 512.62182617 C-379.1226958 515.06762202 -381.84311911 517.59307447 -384.5625 520.125 C-389.22583223 524.4486416 -393.92446176 528.72818453 -398.66015625 532.97265625 C-401.51832203 535.54809775 -404.35460261 538.14685764 -407.1875 540.75 C-411.64082617 544.84169207 -416.12409888 548.89822977 -420.625 552.9375 C-423.49350409 555.52615003 -426.3422665 558.13585146 -429.1875 560.75 C-433.64085487 564.84166107 -438.12409854 568.89822946 -442.625 572.9375 C-445.49350409 575.52615003 -448.3422665 578.13585146 -451.1875 580.75 C-455.64085487 584.84166107 -460.12409854 588.89822946 -464.625 592.9375 C-467.49350409 595.52615003 -470.3422665 598.13585146 -473.1875 600.75 C-477.64085487 604.84166107 -482.12409854 608.89822946 -486.625 612.9375 C-489.49350409 615.52615003 -492.3422665 618.13585146 -495.1875 620.75 C-499.64085487 624.84166107 -504.12409854 628.89822946 -508.625 632.9375 C-511.49350445 635.52615036 -514.34222981 638.13589108 -517.1875 640.75 C-523.28737144 646.35303176 -529.44311163 651.89212914 -535.609375 657.421875 C-540.67622009 661.97235371 -545.71112488 666.55605967 -550.72607422 671.16357422 C-554.66813202 674.78228476 -558.64249497 678.36345702 -562.625 681.9375 C-565.49350409 684.52615003 -568.3422665 687.13585146 -571.1875 689.75 C-575.64085487 693.84166107 -580.12409854 697.89822946 -584.625 701.9375 C-587.49350409 704.52615003 -590.3422665 707.13585146 -593.1875 709.75 C-597.64085487 713.84166107 -602.12409854 717.89822946 -606.625 721.9375 C-609.4935085 724.52615401 -612.34181496 727.1363394 -615.1875 729.75 C-616.20827737 730.68495694 -617.22911013 731.61985341 -618.25 732.5546875 C-620.08858653 734.24168844 -621.92267334 735.93362155 -623.75 737.6328125 C-642.17062134 754.57742251 -660.60839852 765.2818949 -686.07421875 764.6015625 C-692.54830932 764.27089978 -698.23389475 762.80035056 -704.1875 760.25 C-705.0640625 759.88777344 -705.940625 759.52554688 -706.84375 759.15234375 C-725.42326207 750.69407823 -738.27392452 733.20456026 -745.5 714.5625 C-757.90375469 680.32813704 -755.14858787 640.25741563 -740.1875 607.25 C-731.65644304 589.10349395 -720.71535218 573.02548833 -705.25 559.9921875 C-702.84735085 557.96267705 -700.51882714 555.86098829 -698.1875 553.75 C-695.22880249 551.07951656 -692.25823528 548.42701942 -689.25 545.8125 C-686.02190488 543.00177475 -682.85011557 540.134201 -679.6875 537.25 C-675.90087002 533.79671847 -672.0827368 530.38900949 -668.21484375 527.02734375 C-665.85260827 524.95640513 -663.51954147 522.85487152 -661.1875 520.75 C-657.57073655 517.48609152 -653.92360392 514.26209051 -650.25 511.0625 C-647.0123667 508.2173071 -643.8206371 505.32146164 -640.62109375 502.43359375 C-638.51238854 500.54151315 -636.38830199 498.67094242 -634.25 496.8125 C-631.02190488 494.00177475 -627.85011557 491.134201 -624.6875 488.25 C-620.90087002 484.79671847 -617.0827368 481.38900949 -613.21484375 478.02734375 C-610.85260827 475.95640513 -608.51954147 473.85487152 -606.1875 471.75 C-602.57073655 468.48609152 -598.92360392 465.26209051 -595.25 462.0625 C-592.0123667 459.2173071 -588.8206371 456.32146164 -585.62109375 453.43359375 C-583.51238854 451.54151315 -581.38830199 449.67094242 -579.25 447.8125 C-576.02190488 445.00177475 -572.85011557 442.134201 -569.6875 439.25 C-565.90087002 435.79671847 -562.0827368 432.38900949 -558.21484375 429.02734375 C-555.85260827 426.95640513 -553.51954147 424.85487152 -551.1875 422.75 C-547.57073655 419.48609152 -543.92360392 416.26209051 -540.25 413.0625 C-537.0123667 410.2173071 -533.8206371 407.32146164 -530.62109375 404.43359375 C-528.51238854 402.54151315 -526.38830199 400.67094242 -524.25 398.8125 C-521.02190488 396.00177475 -517.85011557 393.134201 -514.6875 390.25 C-510.90358177 386.79919149 -507.08881741 383.39323874 -503.22265625 380.03515625 C-500.81394157 377.92232975 -498.43857739 375.77444706 -496.0625 373.625 C-492.5029386 370.41150707 -488.90310689 367.28115299 -485.1875 364.25 C-491.74960123 356.22965405 -499.08619913 348.6391213 -507 341.9375 C-511.12454028 338.43553184 -514.88320826 334.59134803 -518.6875 330.75 C-524.27294409 325.0749973 -524.27294409 325.0749973 -530.1875 319.75 C-534.98264352 315.7119844 -539.2920078 311.16874941 -543.69921875 306.71875 C-546.77957796 303.61994552 -549.84266604 300.56670228 -553.1875 297.75 C-557.93410873 293.75285581 -562.21771627 289.26876691 -566.55859375 284.84179688 C-569.66275776 281.69497522 -572.80631865 278.66664009 -576.15625 275.78125 C-581.09977222 271.51860087 -585.6196549 266.86799832 -590.1875 262.2109375 C-594.06289047 258.29013229 -598.04246085 254.59324905 -602.21875 250.99609375 C-605.52503551 248.06373338 -608.59491181 244.90435921 -611.6875 241.75 C-617.38691554 235.96916939 -617.38691554 235.96916939 -623.4375 230.5625 C-649.17969874 208.43421685 -661.22376566 175.47393319 -663.91015625 142.3359375 C-664.0062816 140.97421294 -664.09919933 139.61225433 -664.1875 138.25 C-664.24808594 137.33476562 -664.30867188 136.41953125 -664.37109375 135.4765625 C-665.09923004 110.37727639 -657.66582892 83.93365997 -640.4140625 65.31640625 C-630.4888794 56.10513983 -617.88265012 50.8416238 -604.33984375 51.1015625 C-584.07291846 52.49928149 -568.84883128 64.84782395 -555.375 78.875 C-553.90706652 80.38604353 -552.43603954 81.89394453 -550.9622345 83.39926147 C-549.63608323 84.75628065 -548.31808963 86.12125857 -547.00073242 87.48681641 C-544.83532115 89.61370392 -542.65741284 91.60287705 -540.36254883 93.58154297 C-536.05324844 97.31397995 -532.03708835 101.29036872 -528.03125 105.34375 C-527.2846814 106.09410522 -526.53811279 106.84446045 -525.7689209 107.61755371 C-522.61048888 110.79216504 -519.45810721 113.97275916 -516.30517578 117.15283203 C-513.98680255 119.48940361 -511.6653448 121.82287999 -509.34375 124.15625 C-508.64455444 124.8637439 -507.94535889 125.57123779 -507.22497559 126.3001709 C-503.97079853 129.57028932 -500.68170302 132.73641782 -497.1875 135.75 C-492.93180995 139.42032816 -488.97999957 143.34813505 -485.03125 147.34375 C-484.2846814 148.09410522 -483.53811279 148.84446045 -482.7689209 149.61755371 C-479.61048888 152.79216504 -476.45810721 155.97275916 -473.30517578 159.15283203 C-470.98680255 161.48940361 -468.6653448 163.82287999 -466.34375 166.15625 C-465.64455444 166.8637439 -464.94535889 167.57123779 -464.22497559 168.3001709 C-460.97079853 171.57028932 -457.68170302 174.73641782 -454.1875 177.75 C-449.93180995 181.42032816 -445.97999957 185.34813505 -442.03125 189.34375 C-441.2846814 190.09410522 -440.53811279 190.84446045 -439.7689209 191.61755371 C-436.61048888 194.79216504 -433.45810721 197.97275916 -430.30517578 201.15283203 C-427.98680255 203.48940361 -425.6653448 205.82287999 -423.34375 208.15625 C-422.64455444 208.8637439 -421.94535889 209.57123779 -421.22497559 210.3001709 C-417.97389843 213.56717424 -414.688452 216.72979751 -411.19628906 219.73901367 C-406.88007354 223.46144006 -402.88693578 227.45901283 -398.890625 231.51953125 C-397.33997463 233.08281213 -395.7891895 234.64595934 -394.23828125 236.20898438 C-391.82473867 238.64744699 -389.41284199 241.08749684 -387.00341797 243.5300293 C-384.65768406 245.90589756 -382.30582437 248.27556325 -379.953125 250.64453125 C-379.2332843 251.37783157 -378.5134436 252.1111319 -377.77178955 252.86665344 C-377.09718689 253.54463486 -376.42258423 254.22261627 -375.72753906 254.92114258 C-375.13877991 255.51735916 -374.55002075 256.11357574 -373.94342041 256.7278595 C-372.12425065 258.30482845 -370.37934665 259.27413073 -368.1875 260.25 C-367.775 259.86255615 -367.3625 259.4751123 -366.9375 259.07592773 C-352.92136677 245.9221152 -352.92136677 245.9221152 -347.07421875 240.88671875 C-344.75091213 238.87126228 -342.47001535 236.81151538 -340.1875 234.75 C-336.57073655 231.48609152 -332.92360392 228.26209051 -329.25 225.0625 C-326.87785571 222.97788836 -324.53193935 220.86571356 -322.1875 218.75 C-319.20687279 216.06016569 -316.21504767 213.38689636 -313.1875 210.75 C-308.47048716 206.63918961 -303.83111111 202.44332155 -299.1875 198.25 C-293.90764424 193.48213025 -288.61458194 188.73487782 -283.25 184.0625 C-280.87785571 181.97788836 -278.53193935 179.86571356 -276.1875 177.75 C-272.57073655 174.48609152 -268.92360392 171.26209051 -265.25 168.0625 C-262.0123667 165.2173071 -258.8206371 162.32146164 -255.62109375 159.43359375 C-253.51238854 157.54151315 -251.38830199 155.67094242 -249.25 153.8125 C-246.02190488 151.00177475 -242.85011557 148.134201 -239.6875 145.25 C-235.90087002 141.79671847 -232.0827368 138.38900949 -228.21484375 135.02734375 C-225.85260827 132.95640513 -223.51954147 130.85487152 -221.1875 128.75 C-217.57073655 125.48609152 -213.92360392 122.26209051 -210.25 119.0625 C-207.0123667 116.2173071 -203.8206371 113.32146164 -200.62109375 110.43359375 C-198.51238854 108.54151315 -196.38830199 106.67094242 -194.25 104.8125 C-191.02190488 102.00177475 -187.85011557 99.134201 -184.6875 96.25 C-180.90087002 92.79671847 -177.0827368 89.38900949 -173.21484375 86.02734375 C-170.85260827 83.95640513 -168.51954147 81.85487152 -166.1875 79.75 C-162.57073655 76.48609152 -158.92360392 73.26209051 -155.25 70.0625 C-152.0123667 67.2173071 -148.8206371 64.32146164 -145.62109375 61.43359375 C-143.51238854 59.54151315 -141.38830199 57.67094242 -139.25 55.8125 C-136.02190488 53.00177475 -132.85011557 50.134201 -129.6875 47.25 C-125.90087002 43.79671847 -122.0827368 40.38900949 -118.21484375 37.02734375 C-115.85260827 34.95640513 -113.51954147 32.85487152 -111.1875 30.75 C-107.56726277 27.48295665 -103.91766435 24.25479224 -100.23828125 21.0546875 C-97.92661203 19.02041859 -95.6521857 16.9477769 -93.375 14.875 C-66.43567184 -9.31290287 -32.57487043 -24.88358158 0 0 Z " fill="#7E0FD0" transform="translate(947.1875,207.75)"/>
<path d="M0 0 C2.46569387 2.18718929 4.8802517 4.41800039 7.28125 6.67578125 C7.87164063 7.20171875 8.46203125 7.72765625 9.0703125 8.26953125 C41.82907483 38.69947161 54.06214877 91.43683948 56.15625 134.19140625 C57.80489702 186.31774577 51.89159089 248.99621345 14.46875 289.36328125 C11.8968367 292.04916412 9.27786829 294.67915294 6.64453125 297.3046875 C5.31317083 298.64044911 3.99370512 299.98920517 2.71875 301.37890625 C-21.15100067 327.0648336 -59.92635185 335.987502 -93.51806641 337.578125 C-135.15832458 338.84861343 -174.71554346 327.5254671 -205.6796875 298.96875 C-231.3533311 274.6639814 -245.30750308 240.229322 -251.96875 206.05078125 C-252.11989258 205.27742432 -252.27103516 204.50406738 -252.42675781 203.70727539 C-255.3191209 187.77479455 -256.06681072 172.01133825 -256.03442383 155.84667969 C-256.03127412 152.57582893 -256.05478637 149.3058955 -256.08007812 146.03515625 C-256.22111325 99.16066937 -244.81097259 49.97931798 -213.71875 13.67578125 C-212.98269531 12.7940625 -212.24664063 11.91234375 -211.48828125 11.00390625 C-161.18608914 -47.09389475 -56.85246337 -48.60232142 0 0 Z M-152.71875 44.67578125 C-153.50121094 45.28164063 -154.28367187 45.8875 -155.08984375 46.51171875 C-172.90323644 61.14525104 -180.99675836 85.16905153 -183.25683594 107.43798828 C-183.93679633 115.23242149 -183.90329909 123.03795801 -183.921875 130.85546875 C-183.92470238 131.6686771 -183.92752975 132.48188545 -183.93044281 133.31973648 C-183.94535108 137.62982749 -183.95463132 141.93988581 -183.95898438 146.25 C-183.96335526 149.76605688 -183.9772046 153.28186649 -184 156.79785156 C-184.36986543 207.75964835 -184.36986543 207.75964835 -160.71875 251.67578125 C-160.12707031 252.36027344 -159.53539063 253.04476562 -158.92578125 253.75 C-144.232165 269.69680313 -123.89114753 275.55660259 -102.8828125 276.92578125 C-80.76933485 277.32332692 -60.18396745 271.26714515 -43.94555664 255.92407227 C-24.72650572 237.13712433 -16.73415506 211.54458702 -16.33056641 185.0234375 C-16.30017929 181.59476152 -16.30683267 178.16702922 -16.3203125 174.73828125 C-16.31828276 172.87898648 -16.31536393 171.01969249 -16.31161499 169.16040039 C-16.30723386 165.29468076 -16.31348483 161.42917141 -16.32763672 157.56347656 C-16.34472593 152.6623306 -16.33486182 147.76167789 -16.31691933 142.86054993 C-16.30596631 139.03044056 -16.30957995 135.20044398 -16.3173027 131.37033081 C-16.31927308 129.56541889 -16.31695985 127.76049597 -16.30986404 125.95559692 C-16.21954928 96.54443048 -22.82080248 69.31060985 -43.71875 47.67578125 C-60.07481583 31.72523771 -81.3741457 27.031833 -103.52001953 27.20043945 C-121.93091378 27.71302993 -138.28509366 33.05048339 -152.71875 44.67578125 Z " fill="#000000" transform="translate(2676.71875,447.32421875)"/>
<path d="M0 0 C22.44 0 44.88 0 68 0 C68 48.51 68 97.02 68 147 C116.84 147 165.68 147 216 147 C216 98.49 216 49.98 216 0 C238.77 0 261.54 0 285 0 C285 118.14 285 236.28 285 358 C262.23 358 239.46 358 216 358 C216 308.17 216 258.34 216 207 C167.16 207 118.32 207 68 207 C68 256.83 68 306.66 68 358 C45.56 358 23.12 358 0 358 C0 239.86 0 121.72 0 0 Z " fill="#000000" transform="translate(2017,420)"/>
<path d="M0 0 C9.81964685 6.33266338 17.92538196 14.6699228 26.05102539 22.97167969 C32.46634 29.50250411 38.88977176 35.90450548 45.86352539 41.84667969 C54.84031523 49.62244255 63.13721238 58.03744584 71.48852539 66.47167969 C74.20686992 69.21687522 76.92869405 71.95855401 79.65258789 74.69824219 C80.25801422 75.31196686 80.86344055 75.92569153 81.48721313 76.55801392 C84.49653718 79.58425036 87.55762226 82.48702856 90.79077148 85.27392578 C95.14629068 89.03806565 99.19288022 93.06697569 103.23852539 97.15917969 C104.39167236 98.31800659 104.39167236 98.31800659 105.56811523 99.50024414 C108.82212369 102.77044005 112.07008805 106.04661459 115.31860352 109.32226562 C117.70647891 111.72833253 120.09743332 114.13131007 122.48852539 116.53417969 C123.20959473 117.26354736 123.93066406 117.99291504 124.67358398 118.74438477 C128.60853726 122.69805852 132.64749625 126.4382614 136.87158203 130.07958984 C140.40487574 133.21404013 143.70089755 136.58216204 147.01977539 139.94042969 C148.1396283 141.06596252 148.1396283 141.06596252 149.28210449 142.2142334 C152.44053651 145.38884473 155.59291818 148.56943884 158.74584961 151.74951172 C161.06422284 154.0860833 163.38568059 156.41955968 165.70727539 158.75292969 C166.40647095 159.46042358 167.1056665 160.16791748 167.8260498 160.89685059 C171.7846248 164.87481761 175.8531368 168.64705106 180.10336304 172.31137085 C182.19741725 174.13791823 184.17097226 176.05553925 186.11743164 178.03808594 C186.82706055 178.75544922 187.53668945 179.4728125 188.26782227 180.21191406 C189.33613281 181.29956055 189.33613281 181.29956055 190.42602539 182.40917969 C196.30077657 188.40499724 196.30077657 188.40499724 202.57836914 193.96777344 C205.89671168 196.75571158 208.39964646 199.79485422 210.86352539 203.34667969 C211.28722412 203.9519751 211.71092285 204.55727051 212.14746094 205.1809082 C228.24245968 228.73716464 234.77515846 258.53647326 229.48950195 286.6484375 C227.90944966 294.20986939 225.93921223 301.6864555 223.98852539 309.15917969 C223.66110352 310.42286377 223.33368164 311.68654785 222.99633789 312.98852539 C218.80287118 328.59424148 212.93022745 344.50132745 198.86352539 353.84667969 C188.05197155 359.59686899 177.68268623 361.42965364 165.86352539 357.84667969 C155.8187681 353.92477562 148.27966673 348.30808687 140.34692383 341.15185547 C138.24385826 339.30146236 136.01890456 337.61922671 133.80102539 335.90917969 C127.09931027 330.48256966 121.15292918 324.26431698 115.11914062 318.11645508 C110.8053726 313.73067089 106.43929053 309.52934108 101.76855469 305.52685547 C98.47728822 302.62406221 95.43461968 299.47868294 92.36352539 296.34667969 C86.77901332 290.67067575 86.77901332 290.67067575 80.86352539 285.34667969 C76.06838187 281.30866409 71.75901759 276.7654291 67.35180664 272.31542969 C64.27144743 269.21662521 61.20835935 266.16338197 57.86352539 263.34667969 C53.11691666 259.34953549 48.83330912 254.8654466 44.49243164 250.43847656 C41.38826763 247.29165491 38.24470674 244.26331978 34.89477539 241.37792969 C29.95125317 237.11528055 25.43137049 232.46467801 20.86352539 227.80761719 C16.98813492 223.88681198 13.00856454 220.18992874 8.83227539 216.59277344 C5.52596988 213.66039533 2.45634424 210.50083836 -0.63647461 207.34667969 C-6.22098668 201.67067575 -6.22098668 201.67067575 -12.13647461 196.34667969 C-16.93161813 192.30866409 -21.24098241 187.7654291 -25.64819336 183.31542969 C-28.72855257 180.21662521 -31.79164065 177.16338197 -35.13647461 174.34667969 C-45.24517339 165.72651458 -54.71136868 156.5611405 -61.13647461 144.84667969 C-61.81580049 143.6756833 -62.49828037 142.50651283 -63.18334961 141.33886719 C-81.64586865 109.67629491 -87.07132673 74.35274053 -78.32788086 38.53417969 C-73.41314151 22.10802862 -63.95092637 7.03758798 -48.90600586 -1.71582031 C-32.97771191 -9.98325638 -15.48502002 -9.19436833 0 0 Z " fill="#FCC04E" transform="translate(660.136474609375,552.1533203125)"/>
<path d="M0 0 C10.13317729 -0.65324482 20.26125918 -1.14827833 30.41130733 -1.45074081 C35.12778233 -1.59607683 39.82974029 -1.79220363 44.5378418 -2.11230469 C74.08248144 -4.06869815 74.08248144 -4.06869815 81.74549866 1.20014954 C88.53999101 7.3677567 92.09145572 15.98283648 95.43354797 24.33601379 C97.99757411 30.33336083 101.43210661 35.7193805 104.875 41.25 C105.6177565 42.49444332 106.35707269 43.74096289 107.08959961 44.99145508 C108.3521811 47.13074611 109.61507063 49.26985274 110.87841797 51.40869141 C111.22362488 51.99314026 111.56883179 52.57758911 111.92449951 53.17974854 C115.42370085 59.10203907 118.92875674 65.02085829 122.4375 70.9375 C122.83341339 71.60513367 123.22932678 72.27276733 123.63723755 72.96063232 C130.79885585 85.03074271 138.05927498 97.03907111 145.36328125 109.0234375 C145.97510254 110.02987305 146.58692383 111.03630859 147.21728516 112.07324219 C148.4093899 114.03037061 149.60702373 115.98414152 150.81005859 117.93457031 C151.36129395 118.83530273 151.9125293 119.73603516 152.48046875 120.6640625 C152.96797607 121.45506348 153.4554834 122.24606445 153.95776367 123.06103516 C155 125 155 125 155 127 C155.66 127 156.32 127 157 127 C157.25797363 126.29689697 157.51594727 125.59379395 157.78173828 124.86938477 C159.11003303 121.74083803 160.71509639 118.98717537 162.4921875 116.08984375 C162.8338797 115.53011368 163.1755719 114.97038361 163.52761841 114.39369202 C164.640031 112.5728684 165.75756086 110.75524224 166.875 108.9375 C168.04562391 107.02356431 169.21487135 105.10879206 170.38409424 103.19400024 C171.16420821 101.91669021 171.94476626 100.63965129 172.72576904 99.36288452 C175.84680107 94.25951691 178.93213854 89.1355101 182 84 C188.50132683 73.1359555 195.08028311 62.31913706 201.65698242 51.50064087 C204.26679874 47.20736113 206.87426978 42.91266396 209.48046875 38.6171875 C210.22436223 37.39127422 210.96825869 36.16536275 211.7121582 34.93945312 C213.09241146 32.66483936 214.47242731 30.39008217 215.85229492 28.11523438 C217.1728084 25.93953279 218.53063586 23.78611482 219.92163086 21.65478516 C221.61423777 18.9198504 222.62428324 16.25762185 223.61157227 13.20068359 C225.68064645 7.64509112 227.83432556 3.20282505 233 0 C244.47748425 -2.90815025 256.80344673 -1.77541889 268.52246094 -1.23596191 C272.97243194 -1.05068234 277.42422452 -0.96938475 281.87695312 -0.87890625 C290.58968385 -0.68673609 299.29345837 -0.38026359 308 0 C307.05064728 1.75740621 306.09924004 3.51370267 305.14697266 5.26953125 C304.61737946 6.24768799 304.08778625 7.22584473 303.54214478 8.23364258 C301.65436057 11.62002103 299.57836128 14.81420376 297.375 18 C293.49030375 23.72300999 289.73999081 29.51674055 286.0625 35.375 C282.28967024 41.38066774 278.48964836 47.36546813 274.625 53.3125 C270.3775886 59.85043269 266.17954746 66.41848528 262 73 C257.42837146 80.19818531 252.82742504 87.37556797 248.18359375 94.52734375 C244.42132275 100.32979669 240.70752558 106.16244893 237 112 C232.43062209 119.19454966 227.83304399 126.36903816 223.19018555 133.51635742 C219.35866228 139.42378555 215.58442411 145.36689078 211.8125 151.3125 C206.97045269 158.94243251 202.06379967 166.51494908 197 174 C201.64408628 182.10183834 206.49583665 190.03140331 211.5625 197.875 C212.97812143 200.07665779 214.39348114 202.27848388 215.80859375 204.48046875 C216.51226074 205.57407715 217.21592773 206.66768555 217.94091797 207.79443359 C221.01677952 212.58291618 224.07217056 217.3843123 227.125 222.1875 C227.69420166 223.08259277 228.26340332 223.97768555 228.84985352 224.89990234 C229.9940899 226.69931027 231.13821479 228.4987891 232.28222656 230.29833984 C235.18673564 234.86646057 238.09349229 239.43315077 241 244 C242.1666772 245.83332663 243.33334387 247.66665996 244.5 249.5 C245.0775 250.4075 245.655 251.315 246.25 252.25 C251.5 260.5 251.5 260.5 253.24951172 263.24926758 C254.41776388 265.08506912 255.58605824 266.9208438 256.75439453 268.7565918 C259.64714755 273.30194376 262.5391977 277.84773967 265.4296875 282.39453125 C272.27414996 293.15900404 279.13900662 303.91017226 286.01879883 314.65209961 C292.15434471 324.23464841 298.27064012 333.82942223 304.36767578 343.43652344 C305.55904488 345.30750393 306.75612446 347.17485174 307.95654297 349.04003906 C308.59865723 350.0400293 309.24077148 351.04001953 309.90234375 352.0703125 C310.78974243 353.44727295 310.78974243 353.44727295 311.69506836 354.85205078 C313 357 313 357 313 358 C302.74325761 358.37184182 292.48813302 358.65554276 282.22600746 358.82899475 C277.45960031 358.91228151 272.69782311 359.02504794 267.93408203 359.20703125 C263.33004369 359.38179875 258.73043328 359.47671151 254.12333298 359.51803589 C252.37250359 359.54744874 250.6218994 359.60490539 248.8729744 359.69168091 C235.57647342 360.32474408 235.57647342 360.32474408 231.31838417 356.48268318 C228.24510793 352.69465108 226.07752199 348.52840998 224.02794456 344.12220192 C222.31919241 340.59446586 220.23453659 337.30080075 218.18359375 333.96484375 C217.3888045 332.62841989 216.5961945 331.29069543 215.80664062 329.95117188 C215.41581299 329.28915771 215.02498535 328.62714355 214.62231445 327.94506836 C214.23132568 327.2825708 213.84033691 326.62007324 213.4375 325.9375 C211.85360038 323.25867901 210.26864298 320.58048464 208.68359375 317.90234375 C208.29392426 317.24352707 207.90425476 316.58471039 207.5027771 315.90592957 C204.47267461 310.78689218 201.41526026 305.68464392 198.35044861 300.58633423 C195.73923447 296.23968376 193.14537242 291.88307787 190.5625 287.51953125 C190.1936116 286.89640549 189.82472321 286.27327972 189.44465637 285.63127136 C188.6868432 284.35107347 187.92904617 283.07086604 187.17126465 281.79064941 C179.75954593 269.2729942 172.27809078 256.80080357 164.6953125 244.38598633 C161.4400853 239.05044523 158.20400712 233.70392274 155.015625 228.328125 C154.43586914 227.35262695 153.85611328 226.37712891 153.25878906 225.37207031 C152 223 152 223 152 221 C151.34 221 150.68 221 150 221 C149.73517822 221.70850098 149.47035645 222.41700195 149.19750977 223.14697266 C147.94233882 226.13737584 146.46557634 228.84271133 144.83984375 231.6484375 C144.21609863 232.72778564 143.59235352 233.80713379 142.94970703 234.91918945 C142.28567871 236.05960693 141.62165039 237.20002441 140.9375 238.375 C140.24577999 239.56786493 139.55421194 240.76081798 138.86279297 241.95385742 C135.16559686 248.324539 131.4352287 254.67289427 127.61914062 260.97314453 C123.65887814 267.52626489 119.80394233 274.14129471 115.9375 280.75 C109.67632128 291.45026939 103.37899773 302.12792966 97.04760742 312.78686523 C93.46582325 318.82221818 89.90110149 324.86685596 86.359375 330.92578125 C85.9730188 331.58645599 85.5866626 332.24713074 85.18859863 332.92782593 C83.31716215 336.12877315 81.44793655 339.33098172 79.58203125 342.53515625 C78.90370335 343.69664817 78.2253207 344.85810813 77.546875 346.01953125 C76.66273926 347.53703979 76.66273926 347.53703979 75.76074219 349.08520508 C75.17969727 350.0470874 74.59865234 351.00896973 74 352 C73.45504883 353.03606888 72.91009766 354.07213776 72.34863281 355.13960266 C70 358 70 358 66.67169189 358.7215271 C65.33488334 358.73884829 63.99739486 358.72311532 62.66113281 358.68115234 C61.56297997 358.68246658 61.56297997 358.68246658 60.44264221 358.68380737 C58.02837532 358.67963473 55.61690484 358.63300597 53.203125 358.5859375 C51.52733885 358.57474401 49.85153303 358.56620454 48.17572021 358.56021118 C43.76932367 358.53732435 39.3641177 358.4784038 34.95819092 358.4119873 C30.46057237 358.35056077 25.96276104 358.32319547 21.46484375 358.29296875 C12.64270665 358.22865927 3.8214524 358.12628256 -5 358 C-2.39567937 353.25558068 0.20301672 348.53270878 3.12890625 343.9765625 C3.68271973 343.11071533 4.2365332 342.24486816 4.80712891 341.3527832 C5.38640137 340.45261475 5.96567383 339.55244629 6.5625 338.625 C7.81148388 336.67336006 9.06017681 334.7215339 10.30859375 332.76953125 C10.92976074 331.79967285 11.55092773 330.82981445 12.19091797 329.83056641 C14.8514219 325.66782922 17.48994705 321.49137883 20.125 317.3125 C20.61387695 316.53753174 21.10275391 315.76256348 21.60644531 314.96411133 C22.58618327 313.41102242 23.5658389 311.85788156 24.54541016 310.3046875 C25.99081789 308.01454836 27.43840684 305.72580343 28.88671875 303.4375 C34.4117079 294.70534914 39.90583093 285.95473099 45.375 277.1875 C51.41686985 267.50475893 57.52319989 257.86486553 63.66015625 248.2421875 C68.30851522 240.95238011 72.92000322 233.63936029 77.53222656 226.32666016 C79.51921082 223.17696622 81.50789676 220.02834871 83.49682617 216.87988281 C84.49470303 215.30000566 85.49226438 213.71992919 86.48950195 212.13964844 C89.04523035 208.09032341 91.60612504 204.04440944 94.17578125 200.00390625 C99.62294661 191.42857413 104.98886269 182.8400697 110 174 C109.67950684 173.50935059 109.35901367 173.01870117 109.02880859 172.51318359 C100.8576565 159.99487454 92.78377469 147.41806536 84.77490234 134.79541016 C82.40248544 131.05893511 80.02425278 127.32617701 77.64624023 123.59326172 C72.25706673 115.1325193 66.88613395 106.66059676 61.53417969 98.17626953 C55.97501424 89.3678361 50.37816293 80.58344039 44.78222656 71.79833984 C41.27135308 66.28578753 37.76338497 60.77138595 34.25488281 55.25732422 C31.31412095 50.63577476 28.37263668 46.01468822 25.4296875 41.39453125 C22.5185227 36.82399853 19.6103128 32.25159624 16.70361328 27.67822266 C14.99096447 24.98579539 13.27479279 22.29563401 11.55859375 19.60546875 C10.47639378 17.90375312 9.39435521 16.20193483 8.3125 14.5 C7.81927246 13.72889893 7.32604492 12.95779785 6.81787109 12.16333008 C6.35848145 11.43911865 5.8990918 10.71490723 5.42578125 9.96875 C5.02786377 9.34419922 4.62994629 8.71964844 4.2199707 8.07617188 C2.67634497 5.44919705 1.35362379 2.72886332 0 0 Z " fill="#000000" transform="translate(1236,420)"/>
<path d="M0 0 C2.96229707 2.64234187 5.80740954 5.39222243 8.6484375 8.1640625 C9.59396484 9.01677734 9.59396484 9.01677734 10.55859375 9.88671875 C21.35311572 19.86463386 28.88790876 33.28222168 35.6484375 46.1640625 C36.5146875 47.78634766 36.5146875 47.78634766 37.3984375 49.44140625 C38.6484375 52.1640625 38.6484375 52.1640625 38.6484375 55.1640625 C37.88515137 55.55561523 37.12186523 55.94716797 36.33544922 56.35058594 C21.46833117 63.98583499 6.66295428 71.69999706 -7.97265625 79.7734375 C-17.79905523 85.1640625 -17.79905523 85.1640625 -20.3515625 85.1640625 C-20.70347656 84.20886719 -21.05539062 83.25367188 -21.41796875 82.26953125 C-28.19318797 64.32964542 -38.62297301 48.67195074 -56.15625 39.734375 C-76.20464654 30.74716276 -100.79375338 30.02861991 -121.50390625 37.265625 C-140.65907285 44.75377335 -154.89445924 57.78213327 -163.75 76.3828125 C-168.1755216 86.49526186 -171.09516948 97.19793647 -172.3515625 108.1640625 C-172.43338272 108.86375153 -172.51520294 109.56344055 -172.59950256 110.28433228 C-173.496713 118.85737684 -173.51546366 127.40388268 -173.51953125 136.01171875 C-173.52275507 137.63439461 -173.52611993 139.25707019 -173.52961731 140.87974548 C-173.53557317 144.26936515 -173.537461 147.65895946 -173.53686523 151.04858398 C-173.53676408 155.33888298 -173.55038383 159.62901475 -173.56763744 163.91927433 C-173.57889667 167.26983855 -173.5807802 170.62036418 -173.58025551 173.97094536 C-173.58141605 175.54978445 -173.58572575 177.1286252 -173.59358788 178.70744514 C-173.65852339 193.09880189 -173.0719355 207.84127345 -169.2265625 221.7890625 C-169.01555908 222.56701172 -168.80455566 223.34496094 -168.5871582 224.14648438 C-163.23094256 242.70916052 -152.65807665 259.62543883 -135.6171875 269.359375 C-124.40378481 275.42485036 -112.19542543 279.67335013 -99.3515625 280.1640625 C-98.30742188 280.20402344 -97.26328125 280.24398438 -96.1875 280.28515625 C-72.82886361 280.72539663 -54.22310486 274.29211317 -37.3515625 258.1640625 C-36.73539063 257.62265625 -36.11921875 257.08125 -35.484375 256.5234375 C-26.06943092 247.93284336 -20.24588779 235.71850888 -15.3515625 224.1640625 C-11.71261322 225.53255975 -8.4191517 227.16866892 -5.0546875 229.11328125 C-4.02456543 229.7074585 -2.99444336 230.30163574 -1.93310547 230.91381836 C-0.83369629 231.55327393 0.26571289 232.19272949 1.3984375 232.8515625 C2.53265137 233.50842041 3.66686523 234.16527832 4.83544922 234.84204102 C16.85294011 241.81558945 28.761006 248.97147263 40.6484375 256.1640625 C32.97645954 272.4723732 23.80393367 286.82888256 11.6484375 300.1640625 C10.78605469 301.11023438 9.92367188 302.05640625 9.03515625 303.03125 C-16.17543515 329.39966115 -50.19332986 340.92919525 -86.10571289 342.14038086 C-128.45181237 342.90585627 -167.4125744 332.48057264 -198.54296875 302.90234375 C-231.33587014 270.93040512 -245.58958081 222.86178541 -246.51269531 177.92163086 C-246.532174 176.11577346 -246.54597009 174.30984766 -246.5546875 172.50390625 C-246.56170181 171.52406265 -246.56871613 170.54421906 -246.57594299 169.53468323 C-246.59334384 166.3902623 -246.5997952 163.2460298 -246.6015625 160.1015625 C-246.60223724 159.02648437 -246.60291199 157.95140625 -246.60360718 156.84375 C-246.58755646 140.7534325 -246.16755626 125.04626733 -243.3515625 109.1640625 C-243.09415283 107.66045166 -243.09415283 107.66045166 -242.83154297 106.12646484 C-236.94575651 72.65795792 -224.64129946 40.37460251 -201.3515625 15.1640625 C-200.88524414 14.65391602 -200.41892578 14.14376953 -199.93847656 13.61816406 C-152.29808539 -37.94593812 -54.03571287 -46.70343325 0 0 Z " fill="#000000" transform="translate(1868.3515625,442.8359375)"/>
<path d="M0 0 C0.33 -0.66 0.66 -1.32 1 -2 C1.74443359 -1.23816406 1.74443359 -1.23816406 2.50390625 -0.4609375 C5.68011991 2.75746495 8.77868284 5.87840933 12.375 8.625 C30.29371644 23.76181525 38.81989508 50.43474198 41 73 C42.263511 90.83198565 38.60028166 107.16851517 34.125 124.3125 C33.79757812 125.57618408 33.47015625 126.83986816 33.1328125 128.1418457 C28.93934579 143.74756179 23.06670206 159.65464777 9 169 C-1.81155384 174.7501893 -12.18083916 176.58297395 -24 173 C-34.68002308 168.83006092 -42.60093075 162.63856764 -51 155 C-52.6016472 153.60127643 -54.20539425 152.20494839 -55.8125 150.8125 C-56.87602326 149.87616097 -57.93899806 148.93919507 -59 148 C-57.66666667 148 -56.33333333 148 -55 148 C-55.50789062 147.16339844 -56.01578125 146.32679688 -56.5390625 145.46484375 C-61.62441286 136.9284985 -65.63204997 128.34368582 -69 119 C-69.31839844 118.11699219 -69.63679687 117.23398437 -69.96484375 116.32421875 C-73.38013087 105.94242557 -74.18506489 95.29088556 -74.3125 84.4375 C-74.33014404 83.59985107 -74.34778809 82.76220215 -74.3659668 81.89916992 C-74.35824521 74.63034447 -72.76786609 68.02025722 -71 61 C-70.56140325 59.09167825 -70.12292941 57.18332266 -69.68991089 55.27372742 C-60.00280358 12.78798221 -60.00280358 12.78798221 -41.5 -0.4375 C-27.99633615 -8.6703037 -13.62758997 -7.53103657 0 0 Z " fill="#7D0ECE" transform="translate(850,737)"/>
<path d="M0 0 C11.79030243 7.96826517 21.81914839 18.31415508 29.6875 30.125 C30.22503906 30.89585937 30.76257813 31.66671875 31.31640625 32.4609375 C46.68605198 55.97689676 50.24395512 87.44820056 45.1875 114.625 C42.01067069 129.44043008 34.80579419 144.46757874 21.99023438 153.29394531 C11.19051191 159.9912148 0.95673167 161.86575284 -11.578125 159.51171875 C-23.51806952 155.96411743 -32.42897535 147.50568364 -41.3125 139.125 C-41.95058594 138.53976562 -42.58867187 137.95453125 -43.24609375 137.3515625 C-57.89791315 123.45028173 -66.38209829 102.56769722 -70.3125 83.125 C-70.52003906 82.19171875 -70.72757812 81.2584375 -70.94140625 80.296875 C-75.34862891 58.22994197 -72.20096067 33.13580839 -60.3125 13.88671875 C-45.56262627 -7.26354661 -22.52114292 -13.10140126 0 0 Z " fill="#EEB445" transform="translate(364.3125,280.875)"/>
<path d="M0 0 C0 0.33 0 0.66 0 1 C-1.10408203 1.19916016 -1.10408203 1.19916016 -2.23046875 1.40234375 C-3.20628906 1.57894531 -4.18210937 1.75554687 -5.1875 1.9375 C-6.63189453 2.19853516 -6.63189453 2.19853516 -8.10546875 2.46484375 C-14.2844981 3.55062502 -14.2844981 3.55062502 -20 6 C-21.17030762 6.65754272 -21.17030762 6.65754272 -22.36425781 7.32836914 C-26.72297475 10.0927388 -30.12229311 13.79449924 -33.75 17.4375 C-34.52988281 18.20126953 -35.30976563 18.96503906 -36.11328125 19.75195312 C-36.85449219 20.49251953 -37.59570312 21.23308594 -38.359375 21.99609375 C-39.03452148 22.66825928 -39.70966797 23.3404248 -40.40527344 24.03295898 C-42.07962567 26.09821556 -42.49797615 27.43481789 -43 30 C-44.83608161 31.93271748 -46.87262247 33.37051934 -49 35 C-45.82553358 22.51376543 -37.9292301 11.83479876 -27 5 C-17.94770684 -0.20188114 -10.17313572 -0.62539769 0 0 Z " fill="#EFC269" transform="translate(347,274)"/>
<path d="M0 0 C0 0.33 0 0.66 0 1 C-1.10408203 1.19916016 -1.10408203 1.19916016 -2.23046875 1.40234375 C-3.20628906 1.57894531 -4.18210937 1.75554687 -5.1875 1.9375 C-6.63189453 2.19853516 -6.63189453 2.19853516 -8.10546875 2.46484375 C-9.53826172 2.72974609 -9.53826172 2.72974609 -11 3 C-12.29357422 3.21849609 -12.29357422 3.21849609 -13.61328125 3.44140625 C-16.01969246 4.00460887 -17.82852565 4.8404327 -20 6 C-21.02867187 6.40798828 -21.02867187 6.40798828 -22.078125 6.82421875 C-27.29665619 8.89849104 -31.09000397 11.47046495 -35.17578125 15.31640625 C-37.0281284 17.02596004 -38.96177188 18.51969746 -41 20 C-37.41679936 11.53061666 -30.7449248 7.36271724 -23 3 C-22.35160156 2.63390625 -21.70320313 2.2678125 -21.03515625 1.890625 C-14.53182959 -1.12623551 -7.00207826 -0.24616681 0 0 Z " fill="#DFAC64" transform="translate(347,274)"/>
<path d="M0 0 C1.01688584 2.6439032 0.9773725 4.11816583 0.4375 6.9375 C-1.41780923 10.89011531 -3.51324774 12.42283529 -7 15 C-5.34292168 9.35086937 -3.52237988 4.73699363 0 0 Z " fill="#E1AD67" transform="translate(305,294)"/>
<path d="M0 0 C0.556875 0.33 1.11375 0.66 1.6875 1 C4.30284522 2.1309601 6.1806646 2.15662974 9 2 C10.32 4.31 11.64 6.62 13 9 C12.443125 8.71125 11.88625 8.4225 11.3125 8.125 C9.01364545 6.94081353 9.01364545 6.94081353 6.5 6.1875 C3.38134116 4.70613705 1.97781078 2.78358554 0 0 Z " fill="#B87281" transform="translate(784,878)"/>
<path d="M0 0 C0.66 0.33 1.32 0.66 2 1 C-2 5 -6 9 -10 13 C-9.48223379 8.89552608 -7.35372556 7.04300477 -4.4375 4.25 C-3.61121094 3.45078125 -2.78492188 2.6515625 -1.93359375 1.828125 C-1.29550781 1.22484375 -0.65742188 0.6215625 0 0 Z " fill="#EABC63" transform="translate(316,284)"/>
<path d="M0 0 C0 3 0 3 -1.75 5.04296875 C-2.4925 5.75066406 -3.235 6.45835937 -4 7.1875 C-4.7425 7.90292969 -5.485 8.61835938 -6.25 9.35546875 C-6.8275 9.89816406 -7.405 10.44085938 -8 11 C-8 7.45459812 -7.40614728 6.93992636 -5.125 4.375 C-4.59132813 3.76398438 -4.05765625 3.15296875 -3.5078125 2.5234375 C-2 1 -2 1 0 0 Z " fill="#D9A26A" transform="translate(315,283)"/>
</svg>
